<svg width="218" height="133" viewBox="0 0 218 133" fill="none" xmlns="http://www.w3.org/2000/svg">
<path d="M72.9787 94.2093V21.744M143.592 21.744V129.351M66.7507 23.0227L108.285 2L149.82 23.0227M95.8027 129.472V107.516H120.769V129.472M44.2013 110.383C44.2013 120.844 52.7 129.323 63.1813 129.323C73.6653 129.323 82.1627 120.844 82.1627 110.383C82.1627 99.924 73.6653 91.4453 63.1813 91.4453C52.7 91.4453 44.2013 99.924 44.2013 110.383ZM44.2013 110.383C44.2013 120.844 35.704 129.323 25.2213 129.323C14.7387 129.323 6.24 120.844 6.24 110.383C6.24 99.924 14.7387 91.4453 25.2213 91.4453C35.704 91.4453 44.2013 99.924 44.2013 110.383ZM2 130.237H215.501M166.512 130.18V95.7387M199.291 129.295V101.905M129.687 67.9827H86.8827V30.3413H129.687V67.9827ZM63.1813 76.8C63.1813 87.26 54.684 95.7387 44.2013 95.7387C33.7187 95.7387 25.2213 87.26 25.2213 76.8C25.2213 66.34 33.7187 57.8613 44.2013 57.8613C54.684 57.8613 63.1813 66.34 63.1813 76.8ZM166.512 112.075C166.512 112.075 196.499 100.637 166.512 62.512C136.525 100.637 166.512 112.075 166.512 112.075ZM199.291 115.601C199.291 115.601 223.137 106.504 199.291 76.1867C175.444 106.504 199.291 115.601 199.291 115.601Z" stroke="white" stroke-width="4" stroke-miterlimit="10" stroke-linecap="round" stroke-linejoin="round"/>
</svg>
