<svg width="481" height="481" viewBox="0 0 481 481" fill="none" xmlns="http://www.w3.org/2000/svg">
<path d="M90.3191 235.918C91.1872 235.918 92.0737 235.845 92.9603 235.715L102.491 234.238C106.721 243.307 113.093 250.898 120.851 256.809L117.323 265.951C114.035 274.448 118.062 283.886 126.299 287.543L171.164 242.66L148.002 233.721C141.224 231.116 135.886 226.018 132.949 219.387C130.012 212.757 129.846 205.368 132.45 198.59C136.477 188.191 146.654 181.209 157.81 181.209C161.135 181.209 164.422 181.837 167.581 183.056L213.166 200.658L253.875 159.968C252.157 155.738 248.832 152.174 244.252 150.4C235.478 146.983 225.652 151.361 222.272 160.134L219.723 166.747L195.674 157.475L198.26 150.844C201.64 142.07 197.3 132.244 188.526 128.864C179.753 125.465 169.927 129.824 166.546 138.579L163.019 147.704C161.282 147.556 159.565 147.224 157.81 147.224C149.572 147.224 141.648 149.052 134.297 152.155L128.183 144.564C122.291 137.25 111.579 136.104 104.283 141.996C96.9684 147.888 95.8232 158.583 101.715 165.897L107.829 173.47C105.022 177.46 102.546 181.689 100.755 186.344C98.9447 190.998 97.9473 195.801 97.3193 200.64L87.7147 202.136C78.4426 203.577 72.0887 212.276 73.5479 221.549C74.8593 229.934 82.0812 235.918 90.3191 235.918Z" fill="white"/>
<path d="M386.485 244.38L377.656 245.747C373.389 236.807 366.943 228.883 358.724 222.843L362.104 214.144C364.93 206.83 362.307 198.832 356.286 194.381L311.883 238.82L332.348 246.726C346.312 252.119 353.275 267.874 347.9 281.838C342.636 295.358 326.438 302.673 312.751 297.409L269.863 280.822L230.465 320.22C231.795 325.373 235.452 329.824 240.772 331.874C242.785 332.65 244.872 333.02 246.904 333.02C253.72 333.02 260.147 328.882 262.752 322.14L265.319 315.51L283.734 322.621L281.185 329.252C277.805 338.007 282.164 347.851 290.901 351.231C292.932 352.026 294.983 352.377 297.033 352.377C303.848 352.377 310.276 348.258 312.88 341.516L316.316 332.632C318.385 332.853 320.453 333.223 322.54 333.223C330.575 333.223 338.351 331.45 345.573 328.476L351.243 335.531C354.623 339.687 359.537 341.867 364.505 341.867C368.236 341.867 372.004 340.648 375.163 338.099C382.458 332.207 383.604 321.512 377.73 314.198L372.226 307.401C375.163 303.282 377.748 298.905 379.595 294.084C381.479 289.226 382.625 284.258 383.216 279.289L391.731 277.978C401.003 276.518 407.338 267.819 405.897 258.547C404.438 249.275 395.702 242.976 386.485 244.38Z" fill="white"/>
<path d="M410.2 70.2892C316.5 -23.4297 163.99 -23.4297 70.2892 70.2892C-23.4297 163.99 -23.4297 316.481 70.2892 410.2C164.008 503.919 316.5 503.919 410.2 410.219C503.919 316.5 503.919 163.99 410.2 70.2892ZM94.3192 94.3192C171.008 17.63 293.467 14.213 374.46 83.7541L83.7541 374.479C14.1945 293.486 17.6116 171.027 94.3192 94.3192ZM386.17 386.17C310.072 462.268 188.888 466.295 107.877 398.435L398.398 107.876C466.277 188.869 462.287 310.072 386.17 386.17Z" fill="white"/>
</svg>
