<svg width="301" height="245" viewBox="0 0 301 245" fill="none" xmlns="http://www.w3.org/2000/svg">
<path d="M290.3 38.75L123.5 205.55L94.6996 234.45L65.7996 205.55L36.9996 176.75L10.0996 149.75L38.8996 120.95L94.6996 176.75L261.5 9.84998L290.3 38.75Z" fill="#1B1B1B"/>
<path d="M283.3 31.65C258.9 56.05 234.5 80.45 210.1 104.85C179.9 135.05 149.8 165.15 119.6 195.35C108.9 206.05 98.3004 216.75 87.6004 227.35C92.3004 227.35 97.0004 227.35 101.7 227.35C80.4004 206.05 59.1004 184.75 37.8004 163.45C30.9004 156.55 24.0004 149.65 17.1004 142.65C17.1004 147.35 17.1004 152.05 17.1004 156.75C26.7004 147.15 36.3004 137.55 45.9004 127.95C41.2004 127.95 36.5004 127.95 31.8004 127.95C50.4004 146.55 69.0004 165.15 87.6004 183.75C91.4004 187.55 97.9004 187.55 101.7 183.75C120.5 164.95 139.2 146.25 158 127.45C187.9 97.55 217.9 67.55 247.8 37.65C254.7 30.75 261.6 23.85 268.5 16.95C263.8 16.95 259.1 16.95 254.4 16.95C264 26.55 273.6 36.15 283.2 45.75C292.3 54.85 306.5 40.75 297.3 31.65C287.7 22.05 278.1 12.45 268.5 2.85C264.7 -0.95 258.2 -0.95 254.4 2.85C235.6 21.65 216.9 40.35 198.1 59.15C168.2 89.05 138.2 119.05 108.3 148.95C101.4 155.85 94.5004 162.75 87.6004 169.65C92.3004 169.65 97.0004 169.65 101.7 169.65C83.1004 151.05 64.5004 132.45 45.9004 113.85C42.1004 110.05 35.6004 110.05 31.8004 113.85C22.2004 123.45 12.6004 133.05 3.00039 142.65C-0.799609 146.45 -0.799609 152.95 3.00039 156.75C24.4004 178.15 45.7004 199.45 67.1004 220.85C73.9004 227.65 80.8004 234.55 87.6004 241.35C91.4004 245.15 97.9004 245.15 101.7 241.35C122.2 220.85 142.7 200.35 163.2 179.75C198.8 144.15 234.4 108.55 269.9 73.05C279 63.95 288.2 54.75 297.3 45.65C306.5 36.65 292.4 22.55 283.3 31.65Z" fill="#1B1B1B"/>
<path d="M10.1 139.75C8.7 139.65 7.4 139.95 6.2 140.65C5 141.05 3.9 141.75 3 142.75C2 143.65 1.29999 144.75 0.899994 145.95C0.299994 147.15 0 148.45 0 149.85C0.1 150.75 0.199994 151.65 0.399994 152.55C0.899994 154.25 1.7 155.75 3 156.95C5 158.75 7.4 159.85 10.1 159.85C11.5 159.95 12.8 159.65 14 158.95C15.2 158.55 16.3 157.85 17.2 156.85C18.2 155.95 18.9 154.85 19.3 153.65C19.9 152.45 20.2 151.15 20.2 149.75C20.1 148.85 20 147.95 19.8 147.05C19.3 145.35 18.5 143.85 17.2 142.65C15.2 140.95 12.8 139.75 10.1 139.75Z" fill="#1B1B1B"/>
<path d="M10.1 139.75C8.7 139.65 7.4 139.95 6.2 140.65C5 141.05 3.9 141.75 3 142.75C2 143.65 1.29999 144.75 0.899994 145.95C0.299994 147.15 0 148.45 0 149.85C0.1 150.75 0.199994 151.65 0.399994 152.55C0.899994 154.25 1.7 155.75 3 156.95C5 158.75 7.4 159.85 10.1 159.85C11.5 159.95 12.8 159.65 14 158.95C15.2 158.55 16.3 157.85 17.2 156.85C18.2 155.95 18.9 154.85 19.3 153.65C19.9 152.45 20.2 151.15 20.2 149.75C20.1 148.85 20 147.95 19.8 147.05C19.3 145.35 18.5 143.85 17.2 142.65C15.2 140.95 12.8 139.75 10.1 139.75Z" fill="#1B1B1B"/>
</svg>
