<svg width="85" height="63" viewBox="0 0 85 63" fill="none" xmlns="http://www.w3.org/2000/svg">
<path d="M3.64441 17.429C4.8125 18.4238 5.84315 19.5695 6.70927 20.8359C8.84049 23.6778 11.2598 26.8501 16.5076 27.2087C21.7554 27.5673 24.5838 24.7536 27.0818 22.228C29.3412 19.9668 31.1268 18.1844 34.5489 18.4183C37.9709 18.6521 39.5075 20.6615 41.4383 23.2091C43.5695 26.051 45.9888 29.2233 51.2366 29.5819C56.4844 29.9405 59.3128 27.1268 61.8108 24.6012C64.0602 22.3393 65.8459 20.5569 69.2779 20.7914C72.7099 21.0259 74.2265 23.034 76.1573 25.5816C77.4633 27.5645 79.1671 29.2544 81.1606 30.5442C81.6185 30.7909 82.1544 30.8495 82.6548 30.7076C83.1551 30.5657 83.5806 30.2345 83.8408 29.7842C84.101 29.334 84.1756 28.8 84.0488 28.2956C83.9219 27.7913 83.6036 27.3561 83.1613 27.0826C81.6447 26.0442 80.349 24.7156 79.3489 23.1736C77.2077 20.331 74.7884 17.1586 69.5506 16.8007C64.3128 16.4428 61.4744 19.2559 58.9764 21.7814C56.717 24.0427 54.9313 25.8251 51.5093 25.5912C48.0873 25.3574 46.5607 23.3486 44.6299 20.8011C42.4987 17.9592 40.0793 14.7868 34.8216 14.4276C29.5638 14.0683 26.7454 16.8827 24.2474 19.4083C21.998 21.6702 20.2123 23.4526 16.7803 23.218C13.3483 22.9835 11.8217 20.9748 9.90086 18.4279C8.82254 16.8635 7.53227 15.4564 6.06699 14.2468C5.85849 14.0825 5.61937 13.9614 5.36358 13.8905C5.10779 13.8196 4.84045 13.8003 4.57714 13.8338C4.31382 13.8673 4.0598 13.9528 3.82988 14.0854C3.59996 14.2181 3.39875 14.3952 3.23797 14.6064C3.07718 14.8176 2.96005 15.0587 2.89339 15.3156C2.82674 15.5725 2.81189 15.8401 2.84972 16.1029C2.88755 16.3656 2.9773 16.6182 3.11374 16.8458C3.25018 17.0735 3.43057 17.2718 3.64441 17.429Z" fill="white"/>
<path d="M2.6217 32.3942C3.78955 33.3892 4.82017 34.5348 5.68657 35.8011C7.81778 38.643 10.2371 41.8153 15.4849 42.1739C20.7327 42.5325 23.5611 39.7188 26.0591 37.1932C28.3185 34.932 30.1041 33.1496 33.5361 33.3841C36.9681 33.6186 38.4848 35.6267 40.4156 38.1742C42.5468 41.0161 44.9661 44.1885 50.2139 44.5471C55.4617 44.9057 58.2901 42.0919 60.7881 39.5664C63.0375 37.3045 64.8232 35.5221 68.2552 35.7566C71.6872 35.9911 73.2038 37.9992 75.1346 40.5467C76.4406 42.5296 78.1444 44.2196 80.1379 45.5094C80.5958 45.756 81.1317 45.8146 81.6321 45.6728C82.1324 45.5309 82.5578 45.1997 82.8181 44.7494C83.0783 44.2991 83.1529 43.7652 83.0261 43.2608C82.8992 42.7564 82.5809 42.3213 82.1386 42.0477C80.622 41.0094 79.3263 39.6808 78.3262 38.1387C76.185 35.2961 73.7657 32.1238 68.5279 31.7659C63.2901 31.408 60.4517 34.221 57.9537 36.7466C55.6943 39.0078 53.9186 40.7909 50.4866 40.5564C47.0546 40.3218 45.528 38.3131 43.6072 35.7662C41.476 32.9243 39.0566 29.752 33.8088 29.3934C28.5611 29.0348 25.7327 31.8485 23.2347 34.3741C20.9753 36.6353 19.1896 38.4177 15.7576 38.1832C12.3256 37.9487 10.799 35.9399 8.87816 33.393C7.79994 31.8286 6.50965 30.4214 5.04428 29.2119C4.83578 29.0477 4.59667 28.9266 4.34088 28.8557C4.08509 28.7848 3.81775 28.7655 3.55443 28.7989C3.29112 28.8324 3.03709 28.918 2.80717 29.0506C2.57726 29.1832 2.37604 29.3603 2.21526 29.5715C2.05448 29.7827 1.93735 30.0238 1.87069 30.2807C1.80403 30.5377 1.78919 30.8053 1.82702 31.068C1.86485 31.3307 1.9546 31.5833 2.09103 31.811C2.22747 32.0387 2.40787 32.2369 2.6217 32.3942Z" fill="white"/>
<path d="M1.53088 48.357C2.69897 49.3517 3.72963 50.4974 4.59575 51.7638C6.72696 54.6057 9.14632 57.7781 14.3941 58.1367C19.6418 58.4953 22.4702 55.6815 24.9682 53.156C27.2277 50.8947 29.0133 49.1123 32.4353 49.3462C35.8574 49.58 37.3939 51.5894 39.3248 54.137C41.456 56.9789 43.8753 60.1512 49.1231 60.5098C54.3708 60.8684 57.1993 58.0547 59.6972 55.5291C61.9467 53.2672 63.7324 51.4848 67.1644 51.7193C70.5963 51.9539 72.113 53.9619 74.0438 56.5095C75.3498 58.4924 77.0536 60.1823 79.0471 61.4721C79.505 61.7188 80.0409 61.7774 80.5413 61.6355C81.0416 61.4937 81.467 61.1624 81.7273 60.7122C81.9875 60.2619 82.0621 59.7279 81.9353 59.2236C81.8084 58.7192 81.4901 58.2841 81.0478 58.0105C79.5312 56.9721 78.2354 55.6435 77.2354 54.1015C75.0942 51.2589 72.6748 48.0866 67.4371 47.7286C62.1993 47.3707 59.3609 50.1838 56.8629 52.7093C54.6035 54.9706 52.8178 56.753 49.3958 56.5191C45.9738 56.2853 44.4472 54.2765 42.5163 51.729C40.3851 48.8871 37.9658 45.7148 32.708 45.3555C27.4503 44.9962 24.6319 47.8106 22.1339 50.3362C19.8844 52.5981 18.0988 54.3805 14.6668 54.146C11.2348 53.9114 9.70817 51.9027 7.78734 49.3558C6.70902 47.7914 5.41874 46.3843 3.95346 45.1747C3.74496 45.0104 3.50585 44.8893 3.25006 44.8184C2.99427 44.7475 2.72693 44.7282 2.46361 44.7617C2.2003 44.7952 1.94627 44.8807 1.71635 45.0134C1.48644 45.146 1.28522 45.3231 1.12444 45.5343C0.963658 45.7455 0.846525 45.9866 0.779869 46.2435C0.713213 46.5004 0.698366 46.7681 0.736196 47.0308C0.774026 47.2935 0.863778 47.5461 1.00021 47.7738C1.13665 48.0014 1.31704 48.1997 1.53088 48.357Z" fill="white"/>
<path d="M82.4948 8.88C81.2618 7.9669 80.1555 6.8942 79.2048 5.69C76.8848 3 74.2548 0 68.9948 0C63.7348 0 61.1048 3 58.7848 5.69C56.6848 8.1 55.0248 10 51.5848 10C48.1448 10 46.4948 8.1 44.3948 5.69C42.0748 3 39.4448 0 34.1848 0C28.9248 0 26.2948 3 23.9748 5.69C21.8848 8.1 20.2248 10 16.7848 10C13.3448 10 11.6948 8.1 9.59479 5.69C8.15661 3.80074 6.34159 2.2309 4.26479 1.08C3.79118 0.865126 3.25249 0.843193 2.76297 1.01885C2.27345 1.19451 1.87161 1.55395 1.64268 2.02093C1.41374 2.48791 1.37571 3.0257 1.53666 3.52025C1.6976 4.0148 2.04486 4.4272 2.50479 4.67C4.08862 5.60253 5.47193 6.83969 6.57479 8.31C8.90479 11 11.5348 14 16.7848 14C22.0348 14 24.6748 11 26.9948 8.31C29.0948 5.9 30.7448 4 34.1848 4C37.6248 4 39.2848 5.9 41.3748 8.31C43.6948 11 46.3248 14 51.5848 14C56.8448 14 59.4748 11 61.7948 8.31C63.8948 5.9 65.5548 4 68.9948 4C72.4348 4 74.0948 5.9 76.1848 8.31C77.3672 9.79733 78.7504 11.1132 80.2948 12.22C80.514 12.3697 80.7608 12.4742 81.0209 12.5275C81.2809 12.5808 81.5489 12.5818 81.8093 12.5305C82.0698 12.4791 82.3174 12.3765 82.5377 12.2285C82.758 12.0805 82.9467 11.8901 83.0927 11.6684C83.2387 11.4467 83.3392 11.1982 83.3881 10.9373C83.4371 10.6765 83.4337 10.4084 83.378 10.1489C83.3224 9.88937 83.2156 9.64351 83.064 9.42566C82.9123 9.2078 82.7188 9.02231 82.4948 8.88Z" fill="white"/>
</svg>
